<svg width="54" height="54" viewBox="0 0 54 54" fill="none" xmlns="http://www.w3.org/2000/svg">
<g id="Icon">
<path id="icon" d="M20.9271 49.0834L20.0437 42.0168C19.5653 41.8327 19.1144 41.6119 18.6911 41.3543C18.2679 41.0966 17.8538 40.8206 17.449 40.5261L10.8792 43.2865L4.80624 32.797L10.4927 28.4907C10.4559 28.2331 10.4375 27.9846 10.4375 27.7454V26.2548C10.4375 26.0155 10.4559 25.7671 10.4927 25.5095L4.80624 21.2032L10.8792 10.7136L17.449 13.474C17.8538 13.1796 18.2771 12.9036 18.7187 12.6459C19.1604 12.3883 19.6021 12.1674 20.0437 11.9834L20.9271 4.91675H33.0729L33.9562 11.9834C34.4347 12.1674 34.8856 12.3883 35.3088 12.6459C35.7321 12.9036 36.1462 13.1796 36.551 13.474L43.1208 10.7136L49.1937 21.2032L43.5073 25.5095C43.5441 25.7671 43.5625 26.0155 43.5625 26.2548V27.7454C43.5625 27.9846 43.5257 28.2331 43.4521 28.4907L49.1385 32.797L43.0656 43.2865L36.551 40.5261C36.1462 40.8206 35.7229 41.0966 35.2812 41.3543C34.8396 41.6119 34.3979 41.8327 33.9562 42.0168L33.0729 49.0834H20.9271ZM24.7917 44.6668H29.1531L29.926 38.8147C31.067 38.5202 32.1252 38.0878 33.1005 37.5173C34.0759 36.9468 34.9684 36.2567 35.7781 35.447L41.2437 37.7105L43.3969 33.9563L38.649 30.3678C38.833 29.8525 38.9618 29.3096 39.0354 28.7391C39.109 28.1687 39.1458 27.589 39.1458 27.0001C39.1458 26.4112 39.109 25.8315 39.0354 25.261C38.9618 24.6905 38.833 24.1477 38.649 23.6324L43.3969 20.0438L41.2437 16.2897L35.7781 18.6084C34.9684 17.7619 34.0759 17.0534 33.1005 16.4829C32.1252 15.9124 31.067 15.4799 29.926 15.1855L29.2083 9.33342H24.8469L24.074 15.1855C22.933 15.4799 21.8748 15.9124 20.8995 16.4829C19.9241 17.0534 19.0316 17.7435 18.2219 18.5532L12.7562 16.2897L10.6031 20.0438L15.351 23.5772C15.167 24.1292 15.0382 24.6813 14.9646 25.2334C14.891 25.7855 14.8542 26.3744 14.8542 27.0001C14.8542 27.589 14.891 28.1595 14.9646 28.7115C15.0382 29.2636 15.167 29.8157 15.351 30.3678L10.6031 33.9563L12.7562 37.7105L18.2219 35.3918C19.0316 36.2383 19.9241 36.9468 20.8995 37.5173C21.8748 38.0878 22.933 38.5202 24.074 38.8147L24.7917 44.6668ZM27.1104 34.7293C29.2451 34.7293 31.067 33.9747 32.576 32.4657C34.0851 30.9567 34.8396 29.1348 34.8396 27.0001C34.8396 24.8654 34.0851 23.0435 32.576 21.5345C31.067 20.0254 29.2451 19.2709 27.1104 19.2709C24.9389 19.2709 23.1078 20.0254 21.6172 21.5345C20.1266 23.0435 19.3812 24.8654 19.3812 27.0001C19.3812 29.1348 20.1266 30.9567 21.6172 32.4657C23.1078 33.9747 24.9389 34.7293 27.1104 34.7293Z" fill="#FFD8E4"/>
</g>
</svg>
